<svg version="1.1" xmlns="http://www.w3.org/2000/svg" xmlns:xlink="http://www.w3.org/1999/xlink" width="488" height="606"><defs><clipPath id="PIUIBBnJGUnT"><path fill="none" stroke="none" d=" M 0 0 L 488 0 L 488 606 L 0 606 L 0 0 Z"/></clipPath></defs><g transform="scale(1,1)" clip-path="url(#PIUIBBnJGUnT)"><g><rect fill="rgb(255,255,255)" stroke="none" x="0" y="0" width="488" height="606" fill-opacity="1"/><path fill="rgb(153,51,0)" stroke="none" paint-order="stroke fill markers" fill-rule="evenodd" d=" M 118.4060349000706 502.90704706188666 L 118.4060349000706 97.39510151288698 L 422.5399940618224 502.90704706188666 Z" fill-opacity="0.09803921568627451"/><path fill="rgb(0,100,0)" stroke="none" paint-order="stroke fill markers" fill-rule="evenodd" d=" M 118.4060349000706 502.90704706188666 L 139.61923833566559 502.90704706188666 L 139.61923833566703 481.6938436262904 L 118.4060349000706 481.6938436262918 L 118.4060349000706 502.90704706188666" fill-opacity="0.09803921568627451"/><path fill="none" stroke="rgb(0,100,0)" paint-order="fill stroke markers" d=" M 118.4060349000706 502.90704706188666 L 139.61923833566559 502.90704706188666 L 139.61923833566703 481.6938436262904 L 118.4060349000706 481.6938436262918 L 118.4060349000706 502.90704706188666" stroke-opacity="0.6980392156862745" stroke-linecap="round" stroke-linejoin="round" stroke-miterlimit="10" stroke-width="2.5"/><text fill="rgb(153,51,0)" stroke="none" font-family="geogebra-sans-serif, sans-serif" font-size="28px" font-style="normal" font-weight="normal" text-decoration="normal" x="54" y="299" text-anchor="start" dominant-baseline="alphabetic" fill-opacity="1">c = 4</text><text fill="rgb(153,51,0)" stroke="none" font-family="geogebra-sans-serif, sans-serif" font-size="28px" font-style="normal" font-weight="normal" text-decoration="normal" x="54" y="299" text-anchor="start" dominant-baseline="alphabetic" fill-opacity="1">c = 4</text><path fill="none" stroke="rgb(153,51,0)" paint-order="fill stroke markers" d=" M 118.4060349000706 502.90704706188666 L 118.4060349000706 97.39510151288698" stroke-opacity="0.6980392156862745" stroke-linecap="round" stroke-linejoin="round" stroke-miterlimit="10" stroke-width="2.5"/><text fill="rgb(153,51,0)" stroke="none" font-family="geogebra-sans-serif, sans-serif" font-size="28px" font-style="normal" font-weight="normal" text-decoration="normal" x="275" y="293" text-anchor="start" dominant-baseline="alphabetic" fill-opacity="1">a</text><text fill="rgb(153,51,0)" stroke="none" font-family="geogebra-sans-serif, sans-serif" font-size="28px" font-style="normal" font-weight="normal" text-decoration="normal" x="275" y="293" text-anchor="start" dominant-baseline="alphabetic" fill-opacity="1">a</text><path fill="none" stroke="rgb(153,51,0)" paint-order="fill stroke markers" d=" M 118.4060349000706 97.39510151288698 L 422.5399940618224 502.90704706188666" stroke-opacity="0.6980392156862745" stroke-linecap="round" stroke-linejoin="round" stroke-miterlimit="10" stroke-width="2.5"/><text fill="rgb(153,51,0)" stroke="none" font-family="geogebra-sans-serif, sans-serif" font-size="28px" font-style="normal" font-weight="normal" text-decoration="normal" x="252" y="530" text-anchor="start" dominant-baseline="alphabetic" fill-opacity="1">b = 3</text><text fill="rgb(153,51,0)" stroke="none" font-family="geogebra-sans-serif, sans-serif" font-size="28px" font-style="normal" font-weight="normal" text-decoration="normal" x="252" y="530" text-anchor="start" dominant-baseline="alphabetic" fill-opacity="1">b = 3</text><path fill="none" stroke="rgb(153,51,0)" paint-order="fill stroke markers" d=" M 422.5399940618224 502.90704706188666 L 118.4060349000706 502.90704706188666" stroke-opacity="0.6980392156862745" stroke-linecap="round" stroke-linejoin="round" stroke-miterlimit="10" stroke-width="2.5"/><path fill="rgb(77,77,255)" stroke="none" paint-order="stroke fill markers" d=" M 123.4060349000706 502.90704706188666 C 123.4060349000706 505.6684708110406 121.16745864922456 507.90704706188666 118.4060349000706 507.90704706188666 C 115.64461115091663 507.90704706188666 113.4060349000706 505.6684708110406 113.4060349000706 502.90704706188666 C 113.4060349000706 500.1456233127327 115.64461115091663 497.90704706188666 118.4060349000706 497.90704706188666 C 121.16745864922456 497.90704706188666 123.4060349000706 500.1456233127327 123.4060349000706 502.90704706188666 Z" fill-opacity="1"/><path fill="none" stroke="rgb(0,0,0)" paint-order="fill stroke markers" d=" M 123.4060349000706 502.90704706188666 C 123.4060349000706 505.6684708110406 121.16745864922456 507.90704706188666 118.4060349000706 507.90704706188666 C 115.64461115091663 507.90704706188666 113.4060349000706 505.6684708110406 113.4060349000706 502.90704706188666 C 113.4060349000706 500.1456233127327 115.64461115091663 497.90704706188666 118.4060349000706 497.90704706188666 C 121.16745864922456 497.90704706188666 123.4060349000706 500.1456233127327 123.4060349000706 502.90704706188666 Z" stroke-opacity="1" stroke-linecap="round" stroke-linejoin="round" stroke-miterlimit="10"/><text fill="rgb(77,77,255)" stroke="none" font-family="geogebra-sans-serif, sans-serif" font-size="28px" font-style="normal" font-weight="normal" text-decoration="normal" x="91" y="532" text-anchor="start" dominant-baseline="alphabetic" fill-opacity="1">A</text><text fill="rgb(77,77,255)" stroke="none" font-family="geogebra-sans-serif, sans-serif" font-size="28px" font-style="normal" font-weight="normal" text-decoration="normal" x="91" y="532" text-anchor="start" dominant-baseline="alphabetic" fill-opacity="1">A</text><path fill="rgb(77,77,255)" stroke="none" paint-order="stroke fill markers" d=" M 123.4060349000706 97.39510151288698 C 123.4060349000706 100.15652526204094 121.16745864922456 102.39510151288698 118.4060349000706 102.39510151288698 C 115.64461115091663 102.39510151288698 113.4060349000706 100.15652526204094 113.4060349000706 97.39510151288698 C 113.4060349000706 94.63367776373302 115.64461115091663 92.39510151288698 118.4060349000706 92.39510151288698 C 121.16745864922456 92.39510151288698 123.4060349000706 94.63367776373302 123.4060349000706 97.39510151288698 Z" fill-opacity="1"/><path fill="none" stroke="rgb(0,0,0)" paint-order="fill stroke markers" d=" M 123.4060349000706 97.39510151288698 C 123.4060349000706 100.15652526204094 121.16745864922456 102.39510151288698 118.4060349000706 102.39510151288698 C 115.64461115091663 102.39510151288698 113.4060349000706 100.15652526204094 113.4060349000706 97.39510151288698 C 113.4060349000706 94.63367776373302 115.64461115091663 92.39510151288698 118.4060349000706 92.39510151288698 C 121.16745864922456 92.39510151288698 123.4060349000706 94.63367776373302 123.4060349000706 97.39510151288698 Z" stroke-opacity="1" stroke-linecap="round" stroke-linejoin="round" stroke-miterlimit="10"/><text fill="rgb(77,77,255)" stroke="none" font-family="geogebra-sans-serif, sans-serif" font-size="28px" font-style="normal" font-weight="normal" text-decoration="normal" x="122" y="87" text-anchor="start" dominant-baseline="alphabetic" fill-opacity="1">B</text><text fill="rgb(77,77,255)" stroke="none" font-family="geogebra-sans-serif, sans-serif" font-size="28px" font-style="normal" font-weight="normal" text-decoration="normal" x="122" y="87" text-anchor="start" dominant-baseline="alphabetic" fill-opacity="1">B</text><path fill="rgb(77,77,255)" stroke="none" paint-order="stroke fill markers" d=" M 427.5399940618224 502.90704706188666 C 427.5399940618224 505.6684708110406 425.3014178109764 507.90704706188666 422.5399940618224 507.90704706188666 C 419.7785703126685 507.90704706188666 417.5399940618224 505.6684708110406 417.5399940618224 502.90704706188666 C 417.5399940618224 500.1456233127327 419.7785703126685 497.90704706188666 422.5399940618224 497.90704706188666 C 425.3014178109764 497.90704706188666 427.5399940618224 500.1456233127327 427.5399940618224 502.90704706188666 Z" fill-opacity="1"/><path fill="none" stroke="rgb(0,0,0)" paint-order="fill stroke markers" d=" M 427.5399940618224 502.90704706188666 C 427.5399940618224 505.6684708110406 425.3014178109764 507.90704706188666 422.5399940618224 507.90704706188666 C 419.7785703126685 507.90704706188666 417.5399940618224 505.6684708110406 417.5399940618224 502.90704706188666 C 417.5399940618224 500.1456233127327 419.7785703126685 497.90704706188666 422.5399940618224 497.90704706188666 C 425.3014178109764 497.90704706188666 427.5399940618224 500.1456233127327 427.5399940618224 502.90704706188666 Z" stroke-opacity="1" stroke-linecap="round" stroke-linejoin="round" stroke-miterlimit="10"/><text fill="rgb(77,77,255)" stroke="none" font-family="geogebra-sans-serif, sans-serif" font-size="28px" font-style="normal" font-weight="normal" text-decoration="normal" x="427" y="493" text-anchor="start" dominant-baseline="alphabetic" fill-opacity="1">C</text><text fill="rgb(77,77,255)" stroke="none" font-family="geogebra-sans-serif, sans-serif" font-size="28px" font-style="normal" font-weight="normal" text-decoration="normal" x="427" y="493" text-anchor="start" dominant-baseline="alphabetic" fill-opacity="1">C</text></g></g></svg>